<svg width="294" height="160" viewBox="0 0 294 160" fill="none" xmlns="http://www.w3.org/2000/svg">
<path d="M190.352 148.79H228.412V159.68H190.352V148.79Z" fill="#3C296D"/>
<path d="M185.903 123.38C185.903 125.8 185.903 148.79 185.903 148.79H172.263C172.263 148.79 172.263 124.15 172.263 123.82C172.263 116.67 168.853 111.83 161.703 111.83C154.553 111.83 151.143 116.67 151.143 123.82V148.79H137.393V82.6799H151.143V103.8C154.773 101.16 159.173 99.6199 164.013 99.6199C177.983 99.6199 185.903 109.41 185.903 123.38Z" fill="#3C296D"/>
<path d="M132.961 113.15H124.271V130.75C124.271 133.94 126.911 136.47 130.101 136.47H132.961V148.79H127.901C118.331 148.79 110.521 140.98 110.521 131.41V113.15H102.051V100.83H110.521V88.73H124.271V100.83H132.961V113.15Z" fill="#3C296D"/>
<path d="M97.6723 87.08C97.6723 91.15 94.3723 94.56 90.3023 94.56C86.1223 94.56 82.8223 91.15 82.8223 87.08C82.8223 83.01 86.1223 79.71 90.3023 79.71C94.3723 79.71 97.6723 83.01 97.6723 87.08ZM83.3723 148.79V100.83H97.1223V148.79H83.3723Z" fill="#3C296D"/>
<path d="M66.88 85.3198H80.52L63.91 148.79H50.6L40.37 111.06L30.47 148.79H17.16L0 85.3198H13.75L23.54 122.72L33.44 85.3198H47.19L56.98 122.72L66.88 85.3198ZM0.22 147.91L0.44 148.79H0L0.22 147.91Z" fill="#3C296D"/>
<path d="M277.429 49.3899L287.989 55.9899C283.369 62.0399 275.999 65.9999 267.749 65.9999C253.889 65.9999 242.559 54.7799 242.559 40.8099C242.559 26.8399 253.889 15.6199 267.749 15.6199C281.719 15.6199 293.049 26.9499 293.049 40.8099C293.049 44.1099 292.279 46.9699 292.279 46.9699H256.419C258.619 51.0399 262.909 53.7899 267.749 53.7899C271.599 53.7899 275.119 52.0299 277.429 49.3899ZM267.749 27.8299C262.909 27.8299 258.619 30.6899 256.419 34.6499H279.189C276.989 30.6899 272.699 27.8299 267.749 27.8299Z" fill="#3C296D"/>
<path d="M240.275 29.15H231.585V46.75C231.585 49.94 234.225 52.47 237.415 52.47H240.275V64.79H235.215C225.645 64.79 217.835 56.98 217.835 47.41V29.15H209.365V16.83H217.835V4.72998H231.585V16.83H240.275V29.15Z" fill="#3C296D"/>
<path d="M191.28 16.8299H204.92V64.7899H191.28V61.5999C187.21 64.3499 182.26 65.9999 176.87 65.9999C163.01 65.9999 151.68 54.7799 151.68 40.8099C151.68 26.8399 163.01 15.6199 176.87 15.6199C182.26 15.6199 187.21 17.2699 191.28 20.0199V16.8299ZM178.3 53.7899C185.45 53.7899 191.28 47.9599 191.28 40.8099C191.28 33.6599 185.45 27.8299 178.3 27.8299C171.15 27.8299 165.43 33.6599 165.43 40.8099C165.43 47.9599 171.15 53.7899 178.3 53.7899Z" fill="#3C296D"/>
<path d="M132.731 49.3899L143.291 55.9899C138.671 62.0399 131.301 65.9999 123.051 65.9999C109.191 65.9999 97.8613 54.7799 97.8613 40.8099C97.8613 26.8399 109.191 15.6199 123.051 15.6199C137.021 15.6199 148.351 26.9499 148.351 40.8099C148.351 44.1099 147.581 46.9699 147.581 46.9699H111.721C113.921 51.0399 118.211 53.7899 123.051 53.7899C126.901 53.7899 130.421 52.0299 132.731 49.3899ZM123.051 27.8299C118.211 27.8299 113.921 30.6899 111.721 34.6499H134.491C132.291 30.6899 128.001 27.8299 123.051 27.8299Z" fill="#3C296D"/>
<path d="M95.6184 15.6199V29.1499C85.9384 29.1499 81.3184 33.4399 81.3184 39.3799V64.7899H67.5684V16.8299H81.3184V20.0199C85.3884 17.2699 90.3384 15.6199 95.6184 15.6199Z" fill="#3C296D"/>
<path d="M50.27 41.69L63.14 46.53C57.97 58.08 46.42 66 33 66C14.74 66 0 51.26 0 33C0 14.85 14.74 0 33 0C46.42 0 57.97 8.03 63.14 19.47L50.27 24.42C47.08 18.04 40.59 13.75 33 13.75C22.33 13.75 13.75 22.33 13.75 33C13.75 43.67 22.33 52.25 33 52.25C40.59 52.25 47.08 47.96 50.27 41.69Z" fill="#3C296D"/>
</svg>
