<svg width="320" height="179" viewBox="0 0 320 179" fill="none" xmlns="http://www.w3.org/2000/svg">
<path d="M54.8396 45.48L68.8796 50.76C63.2396 63.36 50.6396 72 35.9996 72C16.0796 72 -0.000390455 55.92 -0.000390455 36C-0.000390455 16.2 16.0796 -4.1008e-05 35.9996 -4.1008e-05C50.6396 -4.1008e-05 63.2396 8.75996 68.8796 21.24L54.8396 26.64C51.3596 19.68 44.2796 15 35.9996 15C24.3596 15 14.9996 24.36 14.9996 36C14.9996 47.64 24.3596 57 35.9996 57C44.2796 57 51.3596 52.32 54.8396 45.48ZM104.311 17.04V31.8C93.7505 31.8 88.7105 36.48 88.7105 42.96V70.68H73.7105V18.36H88.7105V21.84C93.1505 18.84 98.5505 17.04 104.311 17.04ZM144.797 53.88L156.317 61.08C151.277 67.68 143.237 72 134.237 72C119.117 72 106.757 59.76 106.757 44.52C106.757 29.28 119.117 17.04 134.237 17.04C149.477 17.04 161.837 29.4 161.837 44.52C161.837 48.12 160.997 51.24 160.997 51.24H121.877C124.277 55.68 128.957 58.68 134.237 58.68C138.437 58.68 142.277 56.76 144.797 53.88ZM134.237 30.36C128.957 30.36 124.277 33.48 121.877 37.8H146.717C144.317 33.48 139.637 30.36 134.237 30.36ZM208.668 18.36H223.548V70.68H208.668V67.2C204.228 70.2 198.828 72 192.948 72C177.828 72 165.468 59.76 165.468 44.52C165.468 29.28 177.828 17.04 192.948 17.04C198.828 17.04 204.228 18.84 208.668 21.84V18.36ZM194.508 58.68C202.308 58.68 208.668 52.32 208.668 44.52C208.668 36.72 202.308 30.36 194.508 30.36C186.708 30.36 180.468 36.72 180.468 44.52C180.468 52.32 186.708 58.68 194.508 58.68ZM262.118 31.8H252.638V51C252.638 54.48 255.518 57.24 258.998 57.24H262.118V70.68H256.598C246.158 70.68 237.638 62.16 237.638 51.72V31.8H228.398V18.36H237.638V5.15996H252.638V18.36H262.118V31.8ZM302.649 53.88L314.169 61.08C309.129 67.68 301.089 72 292.089 72C276.969 72 264.609 59.76 264.609 44.52C264.609 29.28 276.969 17.04 292.089 17.04C307.329 17.04 319.689 29.4 319.689 44.52C319.689 48.12 318.849 51.24 318.849 51.24H279.729C282.129 55.68 286.809 58.68 292.089 58.68C296.289 58.68 300.129 56.76 302.649 53.88ZM292.089 30.36C286.809 30.36 282.129 33.48 279.729 37.8H304.569C302.169 33.48 297.489 30.36 292.089 30.36ZM72.9596 97.44H87.8396L69.7196 166.68H55.1996L44.0396 125.52L33.2396 166.68H18.7196L-0.000390455 97.44H14.9996L25.6796 138.24L36.4796 97.44H51.4796L62.1596 138.24L72.9596 97.44ZM0.23961 165.72L0.479609 166.68H-0.000390455L0.23961 165.72ZM106.551 99.36C106.551 103.8 102.951 107.52 98.5112 107.52C93.9512 107.52 90.3512 103.8 90.3512 99.36C90.3512 94.92 93.9512 91.32 98.5112 91.32C102.951 91.32 106.551 94.92 106.551 99.36ZM90.9512 166.68V114.36H105.951V166.68H90.9512ZM145.048 127.8H135.568V147C135.568 150.48 138.448 153.24 141.928 153.24H145.048V166.68H139.528C129.088 166.68 120.568 158.16 120.568 147.72V127.8H111.328V114.36H120.568V101.16H135.568V114.36H145.048V127.8ZM202.802 138.96C202.802 141.6 202.802 166.68 202.802 166.68H187.922C187.922 166.68 187.922 139.8 187.922 139.44C187.922 131.64 184.202 126.36 176.402 126.36C168.602 126.36 164.882 131.64 164.882 139.44V166.68H149.882V94.56H164.882V117.6C168.842 114.72 173.642 113.04 178.922 113.04C194.162 113.04 202.802 123.72 202.802 138.96ZM207.656 166.68H249.176V178.56H207.656V166.68Z" fill="white"/>
</svg>
